<svg width="16" height="16" viewBox="0 0 16 16" fill="none" xmlns="http://www.w3.org/2000/svg">
<path d="M8 10.6733L8.00667 10.666" stroke="#2587F6" stroke-width="1.5" stroke-linecap="round" stroke-linejoin="round"/>
<path d="M4.66602 12.9333V3.06666C4.66602 2.96057 4.70816 2.85883 4.78317 2.78381C4.85819 2.7088 4.95993 2.66666 5.06602 2.66666H10.9327C10.9852 2.66666 11.0372 2.677 11.0858 2.6971C11.1343 2.71721 11.1784 2.74667 11.2155 2.78381C11.2527 2.82096 11.2821 2.86505 11.3022 2.91358C11.3223 2.96211 11.3327 3.01413 11.3327 3.06666V12.9333C11.3327 12.9859 11.3223 13.0379 11.3022 13.0864C11.2821 13.1349 11.2527 13.179 11.2155 13.2162C11.1784 13.2533 11.1343 13.2828 11.0858 13.3029C11.0372 13.323 10.9852 13.3333 10.9327 13.3333H5.06602C4.95993 13.3333 4.85819 13.2912 4.78317 13.2162C4.70816 13.1412 4.66602 13.0394 4.66602 12.9333Z" stroke="#2587F6" stroke-width="1.5"/>
</svg>
